<?xml version="1.0" encoding="UTF-8"?>
<!--Generator: Apple Native CoreSVG 232.5-->
<!DOCTYPE svg
PUBLIC "-//W3C//DTD SVG 1.1//EN"
       "http://www.w3.org/Graphics/SVG/1.1/DTD/svg11.dtd">
<svg version="1.1" xmlns="http://www.w3.org/2000/svg" xmlns:xlink="http://www.w3.org/1999/xlink" width="13.3301" height="13.0957">
 <g>
  <rect height="13.0957" opacity="0" width="13.3301" x="0" y="0"/>
  <path d="M4.74023 13.0957C5.01562 13.0957 5.2207 12.9727 5.37305 12.75L12.627 1.37695C12.7441 1.19531 12.791 1.05469 12.791 0.914062C12.791 0.556641 12.5566 0.322266 12.1992 0.322266C11.9531 0.322266 11.8066 0.410156 11.6602 0.650391L4.71094 11.6309L1.16016 7.11914C1.00195 6.90234 0.849609 6.80859 0.609375 6.80859C0.251953 6.80859 0 7.05469 0 7.40625C0 7.55859 0.0585938 7.7168 0.1875 7.875L4.08398 12.7383C4.27734 12.9844 4.4707 13.0957 4.74023 13.0957Z" fill="#32d74b"/>
 </g>
</svg>
