<?xml version="1.0" encoding="UTF-8"?>
<!--Generator: Apple Native CoreSVG 232.5-->
<!DOCTYPE svg
PUBLIC "-//W3C//DTD SVG 1.1//EN"
       "http://www.w3.org/Graphics/SVG/1.1/DTD/svg11.dtd">
<svg version="1.1" xmlns="http://www.w3.org/2000/svg" xmlns:xlink="http://www.w3.org/1999/xlink" width="51.25" height="50.918">
 <g>
  <rect height="50.918" opacity="0" width="51.25" x="0" y="0"/>
  <path d="M25.4297 50.8789C39.3555 50.8789 50.8789 39.3555 50.8789 25.4492C50.8789 11.5234 39.3359 0 25.4102 0C11.5039 0 0 11.5234 0 25.4492C0 39.3555 11.5234 50.8789 25.4297 50.8789ZM25.4297 47.2461C13.3594 47.2461 3.65234 37.5195 3.65234 25.4492C3.65234 13.3594 13.3398 3.65234 25.4102 3.65234C37.5 3.65234 47.2266 13.3594 47.2266 25.4492C47.2266 37.5195 37.5195 47.2461 25.4297 47.2461Z" fill="#FF1493"/>
  <path d="M17.1094 36.3086L34.1797 19.2969L31.5039 16.6211L14.4727 33.6328L12.9883 36.8555C12.7734 37.4023 13.3008 37.8711 13.7695 37.6953ZM35.5664 17.9297L37.2266 16.25C37.9883 15.4688 38.0469 14.6289 37.3242 13.9258L36.875 13.457C36.1719 12.7539 35.332 12.832 34.5703 13.5938L32.8906 15.2344Z" fill="#FF1493"/>
 </g>
</svg>
