<?xml version="1.0" encoding="UTF-8"?>
<svg id="Layer_2" data-name="Layer 2" xmlns="http://www.w3.org/2000/svg" viewBox="0 0 106.84 81.1">
  <defs>
    <style>
      .cls-1 {
        fill: rgba(255, 255, 255, .85);
      }
    </style>
  </defs>
  <g id="_1" data-name=" 1">
    <g>
      <circle class="cls-1" cx="85.82" cy="72.16" r="8.94" transform="translate(-4.13 139.11) rotate(-76.72)"/>
      <circle class="cls-1" cx="32.33" cy="72.16" r="8.94" transform="translate(-41.56 44) rotate(-45)"/>
    </g>
    <path class="cls-1" d="M102.77,52.13h-.68v-20.05c0-2.2-1.78-3.99-3.98-4,.04-1.41-.8-2.75-2.19-3.31l-24.5-9.68-2.67-1.06-9.8-3.87-1.11,2.81L32.97,3.14l-.83,2.1v.02s-4.8-1.88-4.8-1.88c-.06-1.88-1.6-3.38-3.5-3.38H3.58C1.6,0,0,1.6,0,3.58v14.82c0,1.97,1.61,3.58,3.58,3.58h20.29c1.92,0,3.48-1.56,3.48-3.48v-9.67l2.91,1.14-.92,2.34,24.87,9.83-1.11,2.81,7.91,3.13h-7.33c-2.23,0-4.03,1.8-4.03,4.03v20.02h-3.45v-10.96c0-6.04-4.89-10.93-10.93-10.93h-13.5c-1.5,0-2.88.85-3.57,2.19l-8.04,15.68c-.29.56-.44,1.19-.44,1.83v6.98h2.47c1.1,0,2,.9,2,2v.61c0,1.1-.9,2-2,2h-2.47v5.41c0,2.21,1.8,4.01,4.01,4.01h6.08c0-6.94,5.62-12.57,12.57-12.57,6.58,0,11.98,5.06,12.51,11.51.81-.73,1.31-1.78,1.31-2.95v-1.75h28.32c2.09-4.04,6.31-6.81,11.17-6.81s9.08,2.77,11.17,6.81h5.98c2.21,0,4-1.79,4-4v-4.99c0-2.25-1.82-4.07-4.07-4.07ZM6.39,8.71c0,.87-.71,1.57-1.57,1.57s-1.57-.7-1.57-1.57v-3.73c0-.87.7-1.57,1.57-1.57s1.57.7,1.57,1.57v3.73ZM11.9,16.67c0,.87-.71,1.57-1.57,1.57s-1.58-.7-1.58-1.57V4.98c0-.87.71-1.57,1.58-1.57s1.57.7,1.57,1.57v11.69ZM17.52,16.67c0,.87-.7,1.57-1.57,1.57s-1.57-.7-1.57-1.57V4.98c0-.87.7-1.57,1.57-1.57s1.57.7,1.57,1.57v11.69ZM23.11,16.67c0,.87-.71,1.57-1.57,1.57s-1.57-.7-1.57-1.57V7.92c0-.87.7-1.58,1.57-1.58s1.57.71,1.57,1.58v8.75ZM38.9,47.47c0,1.34-1.09,2.43-2.43,2.43h-19.61c-1.81,0-2.98-1.9-2.18-3.51l5.33-10.68c.41-.83,1.25-1.35,2.17-1.35h14.29c1.34,0,2.43,1.09,2.43,2.43v10.68Z"/>
  </g>
</svg>