<?xml version="1.0" encoding="UTF-8"?>
<!--Generator: Apple Native CoreSVG 232.5-->
<!DOCTYPE svg
PUBLIC "-//W3C//DTD SVG 1.1//EN"
       "http://www.w3.org/Graphics/SVG/1.1/DTD/svg11.dtd">
<svg version="1.1" xmlns="http://www.w3.org/2000/svg" xmlns:xlink="http://www.w3.org/1999/xlink" width="13.7899" height="15.1699">
 <g>
  <rect height="15.1699" opacity="0" width="13.7899" x="0" y="0"/>
  <path d="M6.62544 15.1523C6.90669 15.1523 7.07661 14.959 7.07661 14.6719L7.07661 12.8555L8.51801 13.6816C8.75825 13.8164 9.00434 13.793 9.14497 13.5586C9.26215 13.3535 9.19184 13.1074 8.93989 12.9668L7.07661 11.9062L7.07661 10.8105L6.95356 8.15625L9.1977 9.58594L10.1528 10.1309L10.1411 12.2754C10.1411 12.5625 10.3168 12.7559 10.5512 12.7559C10.8207 12.7559 10.9614 12.5566 10.9614 12.2754L10.9672 10.5996L12.5493 11.5195C12.8012 11.666 13.0473 11.6016 13.1821 11.3672C13.311 11.127 13.2348 10.875 13.0004 10.7402L11.4184 9.83203L12.8715 8.97656C13.1059 8.83594 13.2055 8.61328 13.0707 8.39062C12.936 8.17969 12.6957 8.12109 12.4555 8.26172L10.5922 9.35156L9.64301 8.80664L7.24653 7.58203L9.64887 6.35742L10.5981 5.80078L12.4438 6.89062C12.6899 7.03125 12.9536 6.97852 13.0766 6.76758C13.2055 6.53906 13.1 6.31641 12.8657 6.16992L11.4243 5.32617L13.0004 4.42383C13.2524 4.27734 13.3227 4.03711 13.1821 3.78516C13.0532 3.55664 12.8012 3.49805 12.5551 3.64453L10.9672 4.55273L10.9614 2.87695C10.9614 2.5957 10.8207 2.40234 10.5454 2.40234C10.311 2.40234 10.1411 2.58984 10.1411 2.87695L10.1469 5.02734L9.1977 5.57227L6.95356 7.00781L7.07661 4.34766L7.07661 3.24609L8.93989 2.18555C9.19184 2.04492 9.26215 1.79883 9.14497 1.59375C9.00434 1.35938 8.75825 1.33594 8.51801 1.4707L7.07661 2.29688L7.07661 0.480469C7.07661 0.193359 6.90669 0 6.62544 0C6.3559 0 6.18012 0.193359 6.18012 0.480469L6.18012 2.30273L4.71528 1.4707C4.47504 1.33594 4.24067 1.35938 4.10004 1.59375C3.98872 1.79883 4.06489 2.04492 4.30512 2.18555L6.18012 3.25195L6.18012 4.34766L6.30317 7.00781L4.05317 5.57227L3.09809 5.02734L3.10981 2.87695C3.10981 2.58984 2.94575 2.40234 2.70551 2.40234C2.43012 2.40234 2.29536 2.5957 2.29536 2.87695L2.28364 4.55273L0.701607 3.64453C0.455514 3.50977 0.197701 3.55664 0.068795 3.78516C-0.07183 4.03711 0.0102012 4.2832 0.250436 4.42383L1.82661 5.32617L0.385201 6.16992C0.144967 6.31641 0.0453575 6.52148 0.180123 6.77344C0.297311 6.97852 0.555123 7.03125 0.807076 6.89062L2.65864 5.80664L3.602 6.35742L6.00434 7.58203L3.60786 8.80664L2.65278 9.35156L0.801217 8.26172C0.555123 8.12109 0.30317 8.17969 0.191842 8.37891C0.0570762 8.63086 0.144967 8.83594 0.385201 8.97656L1.83247 9.83203L0.256295 10.7402C0.0102012 10.8809-0.0659706 11.1387 0.068795 11.3672C0.20942 11.6074 0.461373 11.6543 0.701607 11.5195L2.28364 10.6113L2.2895 12.2754C2.2895 12.5566 2.43012 12.7559 2.70551 12.7559C2.93403 12.7559 3.10981 12.5625 3.10981 12.2754L3.10395 10.1309L4.05317 9.5918L6.30317 8.15625L6.18012 10.8105L6.18012 11.9004L4.30512 12.9668C4.06489 13.1074 3.98872 13.3535 4.10004 13.5586C4.24067 13.793 4.47504 13.8164 4.71528 13.6816L6.18012 12.8496L6.18012 14.6719C6.18012 14.959 6.3559 15.1523 6.62544 15.1523Z" fill="#ffffff" fill-opacity="0.85"/>
 </g>
</svg>
