<?xml version="1.0" encoding="UTF-8"?>
<!--Generator: Apple Native CoreSVG 232.5-->
<!DOCTYPE svg
PUBLIC "-//W3C//DTD SVG 1.1//EN"
       "http://www.w3.org/Graphics/SVG/1.1/DTD/svg11.dtd">
<svg version="1.1" xmlns="http://www.w3.org/2000/svg" xmlns:xlink="http://www.w3.org/1999/xlink" width="17.4141" height="18.873">
 <g>
  <rect height="18.873" opacity="0" width="17.4141" x="0" y="0"/>
  <path d="M10.9512 18.873C11.0918 18.873 11.1797 18.75 11.1738 18.6094L11.127 17.8711L11.748 18.2812C11.8594 18.3574 12.0176 18.3281 12.0879 18.2168C12.1582 18.1055 12.1113 17.9473 11.9766 17.877L11.3145 17.5488L11.9824 17.2148C12.1113 17.1445 12.1523 16.9922 12.0938 16.8809C12.0293 16.7637 11.8594 16.7461 11.748 16.8164L11.127 17.2383L11.1797 16.4883C11.1914 16.3477 11.0918 16.2305 10.9512 16.2305C10.8047 16.2305 10.7168 16.3477 10.7227 16.4883L10.7637 17.2383L10.1426 16.8164C10.0312 16.7461 9.87891 16.7578 9.80859 16.8809C9.74414 16.9922 9.7793 17.1445 9.91406 17.2148L10.5762 17.5488L9.91406 17.8828C9.77344 17.9531 9.73242 18.0996 9.79688 18.2168C9.86719 18.3398 10.0312 18.3574 10.1426 18.2871L10.7637 17.877L10.7285 18.6094C10.7227 18.75 10.8047 18.873 10.9512 18.873Z" fill="#ffffff" fill-opacity="0.85"/>
  <path d="M6.76758 18.873C6.90234 18.873 6.99023 18.75 6.98438 18.6094L6.94336 17.8711L7.55859 18.2812C7.66992 18.3574 7.82812 18.3281 7.9043 18.2168C7.96875 18.1055 7.92773 17.9473 7.78711 17.877L7.125 17.5488L7.79297 17.2148C7.92773 17.1445 7.96289 16.9922 7.91016 16.8809C7.83984 16.7637 7.66992 16.7461 7.55859 16.8164L6.94336 17.2383L6.99023 16.4883C7.00195 16.3477 6.90234 16.2305 6.76758 16.2305C6.61523 16.2305 6.52734 16.3477 6.5332 16.4883L6.58008 17.2383L5.95312 16.8164C5.8418 16.7461 5.68945 16.7578 5.61914 16.8809C5.55469 16.9922 5.58984 17.1445 5.72461 17.2148L6.39258 17.5488L5.72461 17.8828C5.58984 17.9531 5.54883 18.0996 5.61328 18.2168C5.67773 18.3398 5.8418 18.3574 5.95312 18.2871L6.58008 17.877L6.53906 18.6094C6.5332 18.75 6.61523 18.873 6.76758 18.873Z" fill="#ffffff" fill-opacity="0.85"/>
  <path d="M2.57812 18.873C2.71289 18.873 2.80078 18.75 2.79492 18.6094L2.75391 17.8711L3.375 18.2812C3.48047 18.3574 3.63867 18.3281 3.71484 18.2168C3.78516 18.1055 3.73828 17.9473 3.59766 17.877L2.93555 17.5488L3.60352 17.2148C3.73828 17.1445 3.7793 16.9922 3.7207 16.8809C3.65039 16.7637 3.48047 16.7461 3.375 16.8164L2.75391 17.2383L2.80078 16.4883C2.8125 16.3477 2.71289 16.2305 2.57812 16.2305C2.42578 16.2305 2.33789 16.3477 2.34375 16.4883L2.39062 17.2383L1.76367 16.8164C1.65234 16.7461 1.5 16.7578 1.42969 16.8809C1.36523 16.9922 1.40039 17.1445 1.54102 17.2148L2.20312 17.5488L1.54102 17.8828C1.40039 17.9531 1.35938 18.0996 1.42383 18.2168C1.48828 18.3398 1.65234 18.3574 1.76367 18.2871L2.39062 17.877L2.34961 18.6094C2.34375 18.75 2.42578 18.873 2.57812 18.873Z" fill="#ffffff" fill-opacity="0.85"/>
  <path d="M12.5918 16.0371C12.7324 16.0371 12.8203 15.9141 12.8145 15.7734L12.7676 15.0352L13.3887 15.4453C13.5 15.5156 13.6582 15.4922 13.7285 15.3809C13.7988 15.2695 13.752 15.1113 13.6172 15.041L12.9551 14.7129L13.623 14.373C13.752 14.3086 13.793 14.1562 13.7344 14.0391C13.6699 13.9219 13.5 13.9043 13.3887 13.9805L12.7676 14.3965L12.8203 13.6523C12.832 13.5117 12.7324 13.3887 12.5918 13.3887C12.4453 13.3887 12.3574 13.5117 12.3633 13.6523L12.4043 14.3965L11.7832 13.9805C11.6719 13.9043 11.5195 13.916 11.4492 14.0391C11.3848 14.1562 11.4199 14.3027 11.5547 14.373L12.2168 14.7129L11.5547 15.0469C11.4141 15.1113 11.373 15.2637 11.4375 15.3809C11.5078 15.5039 11.6719 15.5215 11.7832 15.4453L12.4043 15.041L12.3691 15.7734C12.3633 15.9141 12.4453 16.0371 12.5918 16.0371Z" fill="#ffffff" fill-opacity="0.85"/>
  <path d="M8.4082 16.0371C8.54297 16.0371 8.63086 15.9141 8.625 15.7734L8.58398 15.0352L9.19922 15.4453C9.31055 15.5156 9.46875 15.4922 9.54492 15.3809C9.60938 15.2695 9.56836 15.1113 9.42773 15.041L8.76562 14.7129L9.43359 14.373C9.56836 14.3086 9.60352 14.1562 9.55078 14.0391C9.48047 13.9219 9.31055 13.9043 9.19922 13.9805L8.58398 14.3965L8.63086 13.6523C8.64258 13.5117 8.54297 13.3887 8.4082 13.3887C8.25586 13.3887 8.16797 13.5117 8.17383 13.6523L8.2207 14.3965L7.59375 13.9805C7.48242 13.9043 7.33008 13.916 7.25977 14.0391C7.19531 14.1562 7.23047 14.3027 7.36523 14.373L8.02734 14.7129L7.36523 15.0469C7.23047 15.1113 7.18945 15.2637 7.25391 15.3809C7.31836 15.5039 7.48242 15.5215 7.59375 15.4453L8.2207 15.041L8.17969 15.7734C8.17383 15.9141 8.25586 16.0371 8.4082 16.0371Z" fill="#ffffff" fill-opacity="0.85"/>
  <path d="M4.21875 16.0371C4.35352 16.0371 4.44141 15.9141 4.43555 15.7734L4.39453 15.0352L5.01562 15.4453C5.12109 15.5156 5.2793 15.4922 5.35547 15.3809C5.42578 15.2695 5.37891 15.1113 5.23828 15.041L4.57617 14.7129L5.24414 14.373C5.37891 14.3086 5.41992 14.1562 5.36133 14.0391C5.29102 13.9219 5.12109 13.9043 5.01562 13.9805L4.39453 14.3965L4.44141 13.6523C4.45312 13.5117 4.35352 13.3887 4.21875 13.3887C4.06641 13.3887 3.97852 13.5117 3.98438 13.6523L4.03125 14.3965L3.4043 13.9805C3.29297 13.9043 3.14062 13.916 3.07031 14.0391C3.00586 14.1562 3.04102 14.3027 3.18164 14.373L3.84375 14.7129L3.18164 15.0469C3.04102 15.1113 3 15.2637 3.06445 15.3809C3.12891 15.5039 3.29297 15.5215 3.4043 15.4453L4.03125 15.041L3.99023 15.7734C3.98438 15.9141 4.06641 16.0371 4.21875 16.0371Z" fill="#ffffff" fill-opacity="0.85"/>
  <path d="M3.7207 12.2461L13.1367 12.2461C15.5801 12.2461 17.4141 10.3945 17.4141 8.09766C17.4141 5.72461 15.4688 3.99023 12.9375 3.99023C11.9883 2.10352 10.2656 0.884766 8.05078 0.884766C5.23828 0.884766 2.92383 3.11719 2.67773 5.92383C1.29492 6.31641 0.234375 7.48242 0.234375 9.07617C0.234375 10.8223 1.51172 12.2461 3.7207 12.2461ZM3.70898 11.2148C2.09766 11.2148 1.25977 10.2832 1.25977 9.10547C1.25977 8.10938 1.86914 7.25391 3.17578 6.9082C3.55078 6.80859 3.68555 6.63867 3.70898 6.26367C3.87891 3.77344 5.80664 1.91602 8.05078 1.91602C9.85547 1.91602 11.2324 2.91797 12.0469 4.59961C12.2051 4.93359 12.4043 5.04492 12.8086 5.04492C15.0352 5.04492 16.3887 6.43359 16.3887 8.12695C16.3887 9.83203 15 11.2148 13.1953 11.2148Z" fill="#ffffff" fill-opacity="0.85"/>
 </g>
</svg>
