<?xml version="1.0" encoding="UTF-8"?>
<!--Generator: Apple Native CoreSVG 232.5-->
<!DOCTYPE svg
PUBLIC "-//W3C//DTD SVG 1.1//EN"
       "http://www.w3.org/Graphics/SVG/1.1/DTD/svg11.dtd">
<svg version="1.1" xmlns="http://www.w3.org/2000/svg" xmlns:xlink="http://www.w3.org/1999/xlink" width="10.7812" height="16.7637">
 <g>
  <rect height="16.7637" opacity="0" width="10.7812" x="0" y="0"/>
  <path d="M8.77148 2.73633L10.3828 2.73633C10.6172 2.73633 10.7812 2.56055 10.7812 2.35547C10.7812 2.14453 10.6172 1.96875 10.3828 1.96875L8.77148 1.96875C8.53711 1.96875 8.37305 2.14453 8.37305 2.35547C8.37305 2.56055 8.53711 2.73633 8.77148 2.73633ZM8.77148 4.86328L10.3828 4.86328C10.6172 4.86328 10.7812 4.68164 10.7812 4.47656C10.7812 4.27148 10.6172 4.08984 10.3828 4.08984L8.77148 4.08984C8.53711 4.08984 8.37305 4.27148 8.37305 4.47656C8.37305 4.68164 8.53711 4.86328 8.77148 4.86328ZM8.77148 6.98438L10.3828 6.98438C10.6172 6.98438 10.7812 6.80859 10.7812 6.59766C10.7812 6.39258 10.6172 6.2168 10.3828 6.2168L8.77148 6.2168C8.53711 6.2168 8.37305 6.39258 8.37305 6.59766C8.37305 6.80859 8.53711 6.98438 8.77148 6.98438ZM8.77148 9.10547L10.3828 9.10547C10.6172 9.10547 10.7812 8.92969 10.7812 8.72461C10.7812 8.51367 10.6172 8.33789 10.3828 8.33789L8.77148 8.33789C8.53711 8.33789 8.37305 8.51367 8.37305 8.72461C8.37305 8.92969 8.53711 9.10547 8.77148 9.10547Z" fill="#ffffff" fill-opacity="0.85"/>
  <path d="M5.12695 16.7461C7.26562 16.7461 8.99414 15.0117 8.99414 12.8789C8.99414 11.7539 8.52539 10.7578 7.61719 9.96094C7.44141 9.80859 7.40625 9.70898 7.40625 9.46289L7.41211 2.4668C7.41211 1.00195 6.48047 0 5.12695 0C3.76758 0 2.83008 1.00195 2.83008 2.4668L2.83594 9.46289C2.83594 9.70898 2.80078 9.80859 2.625 9.96094C1.7168 10.7578 1.24805 11.7539 1.24805 12.8789C1.24805 15.0117 2.97656 16.7461 5.12695 16.7461ZM5.12695 15.8086C3.50977 15.8086 2.19727 14.4902 2.19727 12.8789C2.19727 11.9297 2.63672 11.0684 3.45117 10.5176C3.69727 10.3477 3.79102 10.1777 3.79102 9.86133L3.79102 2.50195C3.79102 1.58203 4.33594 0.949219 5.12695 0.949219C5.90625 0.949219 6.45117 1.58203 6.45117 2.50195L6.45117 9.86133C6.45117 10.1777 6.54492 10.3477 6.79102 10.5176C7.60547 11.0684 8.04492 11.9297 8.04492 12.8789C8.04492 14.4902 6.73242 15.8086 5.12695 15.8086Z" fill="#ffffff" fill-opacity="0.85"/>
  <path d="M5.12109 14.7891C6.17578 14.7891 7.02539 13.9395 7.02539 12.873C7.02539 12.1348 6.61523 11.5254 6.00586 11.1973C5.74805 11.0625 5.66602 10.9629 5.66602 10.582L5.66602 2.34375C5.66602 1.98047 5.42578 1.74023 5.12109 1.74023C4.81641 1.74023 4.57617 1.98047 4.57617 2.34375L4.57617 10.582C4.57617 10.9629 4.49414 11.0625 4.23633 11.1973C3.62695 11.5254 3.2168 12.1348 3.2168 12.873C3.2168 13.9395 4.06641 14.7891 5.12109 14.7891Z" fill="#ffffff" fill-opacity="0.85"/>
 </g>
</svg>
